<svg xmlns="http://www.w3.org/2000/svg" viewBox="0 0 129.2 128"><defs><style>.cls-1{fill:#37b24d;}</style></defs><title>O</title><g id="Layer_2" data-name="Layer 2"><g id="Layer_1-2" data-name="Layer 1"><path class="cls-1" d="M64.6,0c37.8,0,64.6,28.2,64.6,64s-26.8,64-64.6,64C26.6,128,0,99.8,0,64S26.6,0,64.6,0Zm0,122c33.2,0,57.2-25.4,57.2-58S97.8,5.6,64.6,5.6C31.2,5.6,7.4,31.4,7.4,64S31.2,122,64.6,122ZM9.6,59.6H20.4l-.2,1H9.4Zm-.2,4H20.2v1H9.4Zm0,4H20.2l.2,1H9.6Zm.6-12H21l-.4,1H9.8Zm-.2,16H20.6l.4,1H10Zm.8-20H21.8l-.4,1h-11Zm-.2,24h11l.4,1h-11Zm1.2-28H23l-.4,1H11.4Zm1.2-4h12l-.6,1H12.6Zm1.6-4H27l-.8,1H14Zm2-4H30l-.8,1H15.8Zm2.6-4H33.8l-1.2,1H18.2Zm2.8-4H38.6l-1.4,1H21Zm42.8-5.4C90.2,22.2,107,40.6,107,64s-16.8,42.4-42.4,42.4c-25.8,0-42.4-19-42.4-42.4S38.8,22.2,64.6,22.2Zm-39,1.4h21l-2.6,1H24.6Zm4.6-4h69l1,1H72.6l-8-.6-7.4.6H28.6Zm34.4,80.6c21.2,0,34.8-16,34.8-36.2S85.8,27.8,64.6,27.8c-21.4,0-34.8,16-34.8,36.2S43.2,100.2,64.6,100.2ZM36,15.6H93.2l1.2,1h-60Zm8.2-4H85l2.6,1h-46ZM64.6,7.8l10.6.8H54.8Zm39,15.8-.2-.2,1.2,1.2H85.2l-2.2-1Zm3.4,4,1,1H92l-1.4-1Zm3,4,.8,1H96.6l-1.2-1Zm2.4,4,.6,1H100l-1-1Zm-10.4,4h12.4l.4,1H102.6Zm2.2,4H116l.4,1H104.8Zm1.8,4h11.4l.4,1H106.6Zm1.2,4h11.2l.4,1H107.6Zm.4,24h11l-.2,1H107.2Zm.6-20h11l.2,1h-11Zm.2,16h11l-.4,1H108.2Zm.4-4h10.8v1h-11Zm0-8h10.8v1H108.8Zm.2,4h10.8v1H109Z"/></g></g></svg>