<svg xmlns="http://www.w3.org/2000/svg" viewBox="0 0 115.8 120"><defs><style>.cls-1{fill:#1c7ed6;}</style></defs><title>X</title><g id="Layer_2" data-name="Layer 2"><g id="Layer_1-2" data-name="Layer 1"><path class="cls-1" d="M40.4,57.6,1.8,0H36L58.6,35.8,80,0h33.8l-39,59.4,41,60.6H82.2L57.4,82.2,33.6,120H0ZM29,114.4l27.4-42h2.4l28,42H104L66.6,59.6l35.6-54H84.4L59.6,46.8h-2L31.4,5.6H13.8L48.6,57.4l-37,57Zm-12.8-3.2H28.6l-.8,1H15.4ZM17.8,7.8H30l.6,1H18.4Zm1,99.4H31.2l-.8,1H18Zm1.6-95.4h12l.8,1H21Zm.8,91.6H33.6l-.8,1H20.4Zm2.6-4H36.2l-.8,1H23Zm-.6-83.6H35l.6,1H23.8Zm3.2,79.6H38.8l-.8,1H25.6Zm-.6-75.6H37.4l.8,1H26.4ZM29,91.4H41.4l-.8,1H28.2Zm-.6-67.8H39.8l.8,1H29Zm3.2,63.8H44l-.8,1H30.8ZM31,27.6H42.4l.8,1H31.6Zm3.2,55.8H46.6l-.8,1H33.4Zm-.4-51.8H45l.8,1H34.4Zm3,47.8H49.2l-.8,1H36Zm-.4-43.8H47.6l.6,1H37Zm3,39.8H51.8l-.8,1H38.6Zm-.2-35.8H50l.8,1h-11ZM42,71.4H54.4l-.8,1H41.2Zm-.2-27.8H52.6l.8,1h-11Zm2.8,23.8H57l-.8,1H43.8Zm-.2-19.8H55.2l.8,1H45Zm2.6,16H59.6l-.4.8H46.6Zm.2-12H57.8l.8,1H47.8Zm2.6,8H62.2l-.8,1H49Zm0-4H60.4l.6,1H50.4Z"/></g></g></svg>